# AST/ASF file generated using VICON BodyLanguage
# -----------------------------------------------
:version 1.10
:name VICON
:units
  mass 1.0
  length 0.45
  angle deg
:documentation
   .ast/.asf automatically generated from VICON data using
   VICON BodyBuilder and BodyLanguage model FoxedUp or BRILLIANT.MOD
:root
   order TX TY TZ RX RY RZ
   axis XYZ
   position 0 0 0  
   orientation 0 0 0 
:bonedata
  begin
     id 1 
     name lhipjoint
     direction 0.561001 -0.76473 0.316963 
     length 2.4722 
     axis 0 0 0  XYZ
  end
  begin
     id 2 
     name lfemur
     direction 0.34202 -0.939693 0  
     length 7.59403  
     axis 0 0 20  XYZ
    dof rx ry rz
    limits (-160.0 20.0)
           (-70.0 70.0)
           (-60.0 70.0)
  end
  begin
     id 3 
     name ltibia
     direction 0.34202 -0.939693 0   
     length 7.89655   
     axis 0 0 20   XYZ
    dof rx
    limits (-10.0 170.0)
  end
  begin
     id 4 
     name lfoot
     direction 0.061296 -0.168409 0.98381   
     length 2.73287   
     axis -90 7.62852e-016 20   XYZ
    dof rx rz
    limits (-45.0 90.0)
           (-70.0 20.0)
  end
  begin
     id 5 
     name ltoes
     direction 1.53547e-011 -4.21984e-011 1   
     length 1.37057   
     axis -90 7.62852e-016 20   XYZ
    dof rx
    limits (-90.0 20.0)
  end
  begin
     id 6 
     name rhipjoint
     direction -0.559611 -0.765599 0.317323   
     length 2.46939  
     axis 0 0 0  XYZ 
  end
  begin
     id 7 
     name rfemur
     direction -0.34202 -0.939693 0   
     length 7.53712   
     axis 0 0 -20   XYZ
    dof rx ry rz
    limits (-160.0 20.0)
           (-70.0 70.0)
           (-70.0 60.0)
  end
  begin
     id 8 
     name rtibia
     direction -0.34202 -0.939693 0   
     length 8.12549   
     axis 0 0 -20   XYZ
    dof rx
    limits (-10.0 170.0)
 end
 begin
     id 9 
     name rfoot
     direction -0.066984 -0.184037 0.980634   
     length 2.67541  
     axis -90 -7.62852e-016 -20   XYZ
    dof rx rz
    limits (-45.0 90.0)
           (-20.0 70.0)
  end
  begin
     id 10 
     name rtoes
     direction -1.53549e-011 -4.21786e-011 1   
     length 1.34085   
     axis -90 -7.62852e-016 -20   XYZ
    dof rx
    limits (-90.0 20.0)
  end
  begin
     id 11 
     name lowerback
     direction -0.0522728 0.992594 -0.109658   
     length 2.05633   
     axis 0 0 0   XYZ
    dof rx ry rz
    limits (-20.0 45.0)
           (-30.0 30.0)
           (-30.0 30.0)
  end
  begin
     id 12 
     name upperback
     direction 0.00589338 0.999977 0.00335704   
     length 2.05845   
     axis 0 0 0   XYZ
    dof rx ry rz
    limits (-20.0 45.0)
           (-30.0 30.0)
           (-30.0 30.0)
  end
  begin
     id 13 
     name thorax
     direction 0.0292928 0.998059 0.0549487   
     length 2.09281   
     axis 0 0 0   XYZ
    dof rx ry rz
    limits (-20.0 45.0)
           (-30.0 30.0)
           (-30.0 30.0)
  end
  begin
     id 14 
     name lowerneck
     direction 0.0356368 0.980775 0.191858   
     length 1.84767   
     axis 0 0 0   XYZ
    dof rx ry rz
    limits (-20.0 45.0)
           (-30.0 30.0)
           (-30.0 30.0)
  end
  begin
     id 15 
     name upperneck
     direction -0.0227605 0.98931 -0.14404   
     length 1.89582   
     axis 0 0 0   XYZ
    dof rx ry rz
    limits (-20.0 45.0)
           (-30.0 30.0)
           (-30.0 30.0)
  end
  begin
     id 16
     name head
     direction -0.00932985 0.997511 -0.0698904  
     length 1.90213  
     axis 0 0 0   XYZ
    dof rx ry rz
    limits (-20.0 45.0)
           (-30.0 30.0)
           (-30.0 30.0)
  end
  begin
     id 17 
     name lclavicle
     direction 0.873442 0.479511 0.0846686  
     length 3.41193  
     axis 0 0 0   XYZ
    dof ry rz
    limits (-20.0 10.0)
           (0.0 20.0)
  end
  begin
     id 18 
     name lhumerus
     direction 1 -4.4897e-011 -5.62117e-018   
     length 5.59864   
     axis 180 -30 -90   XYZ
    dof rx ry rz
    limits (-60.0 90.0)
           (-90.0 90.0)
           (-90.0 90.0)
  end
  begin
     id 19
     name lradius
     direction 1 -4.48966e-011 -6.26295e-027   
     length 3.59542   
     axis 180 -30 -90   XYZ
    dof rx
    limits (-10.0 170.0)
  end
  begin
     id 20
     name lwrist
     direction 1 -4.48947e-011 -1.74096e-026   
     length 1.79771   
     axis 1.04567e-014 90 90   XYZ
    dof ry
    limits (-180.0 0.0)
 end
  begin
     id 21 
     name lhand
     direction 1 -4.49085e-011 -3.48469e-026   
     length 0.572014   
     axis 2.22196e-014 90 90   XYZ
    dof rx rz
    limits (-90.0 90.0)
           (-45.0 45.0)
  end
  begin
     id 22 
     name lfingers
     direction 1 -4.48884e-011 -6.96135e-026   
     length 0.461173   
     axis 4.44383e-014 90 90   XYZ
    dof rx
    limits (0.0 90.0)
  end
  begin
     id 23
     name lthumb
     direction 0.707107 -6.34976e-011 0.707107   
     length 0.662154   
     axis -90 45 -5.4397e-014   XYZ
    dof rx rz
    limits (-45.0 45.0)
           (-45.0 45.0)
  end
  begin
     id 24 
     name rclavicle
     direction -0.890242 0.443271 0.104786   
     length 3.46753  
     axis 0 0 0   XYZ 
    dof ry rz
    limits (-10.0 20.0)
           (-20.0 0.0)
  end
  begin
     id 25 
     name rhumerus
     direction -1 -4.48963e-011 -5.41723e-018  
     length 5.8094   
     axis 180 30 90   XYZ
    dof rx ry rz
    limits (-90.0 60.0)
           (-90.0 90.0)
           (-90.0 90.0)
  end
  begin
     id 26 
     name rradius
     direction -1 -4.48958e-011 -6.51059e-027   
     length 3.66953   
     axis 180 30 90   XYZ
    dof rx
    limits (-10.0 170.0)
  end
  begin
     id 27 
     name rwrist
     direction -1 -4.48975e-011 -1.74124e-026   
     length 1.83476   
     axis 1.04567e-014 -90 -90   XYZ
    dof ry
    limits (-180.0 0.0)
  end
  begin
     id 28
     name rhand
     direction -1 -4.49013e-011 -3.48326e-026   
     length 0.57843   
     axis 2.22196e-014 -90 -90   XYZ
    dof rx rz
    limits (-90.0 90.0)
           (-45.0 45.0)
  end
  begin
     id 29
     name rfingers
     direction -1 -4.49023e-011 -6.9669e-026   
     length 0.466345   
     axis 4.44383e-014 -90 -90   XYZ
    dof rx
    limits (0.0 90.0)
  end
  begin
     id 30
     name rthumb
     direction -0.707107 -6.34926e-011 0.707107   
     length 0.669581   
     axis -90 -45 5.4397e-014   XYZ
    dof rx rz
    limits (-45.0 45.0)
           (-45.0 45.0)
  end
:hierarchy
  begin
    root lhipjoint rhipjoint lowerback
    lhipjoint lfemur
    lfemur ltibia
    ltibia lfoot
    lfoot ltoes
    rhipjoint rfemur
    rfemur rtibia
    rtibia rfoot
    rfoot rtoes
    lowerback upperback
    upperback thorax
    thorax lowerneck lclavicle rclavicle
    lowerneck upperneck
    upperneck head
    lclavicle lhumerus
    lhumerus lradius
    lradius lwrist
    lwrist lhand lthumb
    lhand lfingers
    rclavicle rhumerus
    rhumerus rradius
    rradius rwrist
    rwrist rhand rthumb
    rhand rfingers
  end

#!OML:ASF H:\SkateBoarding\Project 1\Capture day 1\Session 1\Skater.ASF
:FULLY-SPECIFIED
:DEGREES
48
root -13.0953 19.7277 -29.4978 3.66661 53.7788 0.46512
lowerback 8.06001 -0.586756 -3.44043
upperback -1.47934 -1.12373 0.192434
thorax -6.00641 -0.428646 2.28337
lowerneck -18.4782 -7.25425 -4.27946
upperneck 35.8419 -10.0853 2.9798
head 16.3337 -4.16708 0.13663
rclavicle -7.83957e-015 -1.98785e-016
rhumerus -36.2798 13.8435 -90.9259
rradius 44.492
rwrist -13.8329
rhand -35.6044 1.33117
rfingers 7.12502
rthumb -8.7281 -28.4684
lclavicle -7.83957e-015 -1.98785e-016
lhumerus -56.7694 -13.1156 91.8579
lradius 58.4467
lwrist 34.5381
lhand -28.4633 18.8481
lfingers 7.12502
lthumb -1.83337 48.8199
rfemur -19.4016 -1.68862 17.362
rtibia 40.2418
rfoot -30.4667 0.435303
rtoes -14.1656
lfemur -7.09644 0.120156 -19.0952
ltibia 44.514
lfoot -45.411 7.21094
ltoes -2.9754
49
root -13.0794 19.7495 -29.2256 3.53585 52.965 0.397056
lowerback 8.12003 -0.444312 -3.53036
upperback -1.404 -0.937734 0.296341
thorax -5.97025 -0.333762 2.41912
lowerneck -18.5079 -7.18844 -4.26027
upperneck 35.7013 -9.92498 2.81523
head 16.2462 -4.12902 0.0943221
rclavicle -1.03132e-013 4.77083e-015
rhumerus -36.236 14.2621 -90.7844
rradius 44.5654
rwrist -13.9689
rhand -35.8551 1.30523
rfingers 7.12502
rthumb -8.97002 -28.4841
lclavicle -1.03132e-013 4.77083e-015
lhumerus -57.2407 -13.1736 91.818
lradius 59.1254
lwrist 34.6056
lhand -28.2094 18.4382
lfingers 7.12502
lthumb -1.58816 48.4121
rfemur -18.898 -0.626587 17.4661
rtibia 39.5347
rfoot -30.4768 0.884056
rtoes -12.9676
lfemur -8.05505 0.471263 -18.7946
ltibia 46.6326
lfoot -44.1799 7.08242
ltoes -2.0439
50
root -13.0609 19.7769 -28.9645 3.4889 52.4198 0.27553
lowerback 8.19156 -0.320663 -3.37127
upperback -1.42636 -0.758646 0.312769
thorax -6.048 -0.249032 2.32475
lowerneck -18.4527 -7.13602 -4.14792
upperneck 35.5901 -9.85259 2.73467
head 16.1583 -4.10129 0.0588297
rclavicle 9.85972e-014 -6.85807e-015
rhumerus -36.2982 14.2842 -90.6259
rradius 44.6293
rwrist -13.9748
rhand -34.8741 1.48176
rfingers 7.12502
rthumb -8.02328 -28.3459
lclavicle 9.85972e-014 -6.85807e-015
lhumerus -57.7999 -13.5828 91.8461
lradius 59.7864
lwrist 34.6838
lhand -27.91 18.0992
lfingers 7.12502
lthumb -1.29899 48.075
rfemur -18.5097 0.0145099 17.5718
rtibia 38.7682
rfoot -30.4726 0.858395
rtoes -12.6372
lfemur -9.27076 0.342178 -18.4662
ltibia 48.8227
lfoot -42.66 7.25569
ltoes -1.12528
51
root -13.0446 19.8015 -28.713 3.57533 51.9964 0.314994
lowerback 8.33346 -0.314509 -3.22919
upperback -1.40562 -0.738179 0.350744
thorax -6.10912 -0.242334 2.28362
lowerneck -18.5387 -7.07881 -4.14014
upperneck 35.462 -9.71859 2.61385
head 16.0979 -4.06721 0.0297964
rclavicle -4.04403e-015 -7.15625e-015
rhumerus -36.2334 14.5186 -90.4114
rradius 44.7273
rwrist -14.1291
rhand -35.1445 1.21259
rfingers 7.12502
rthumb -8.28425 -28.605
lclavicle -4.04403e-015 -7.15625e-015
lhumerus -58.124 -13.6761 91.8255
lradius 60.3381
lwrist 34.676
lhand -27.6106 17.8056
lfingers 7.12502
lthumb -1.00979 47.783
rfemur -18.1067 0.656024 17.5199
rtibia 37.9491
rfoot -30.5602 1.08152
rtoes -12.0243
lfemur -10.612 0.0414727 -18.2447
ltibia 50.9665
lfoot -40.826 8.00293
ltoes -0.646822
52
root -13.0314 19.8264 -28.4547 3.49389 51.5803 0.239853
lowerback 8.57321 -0.312362 -3.10508
upperback -1.38806 -0.72651 0.410346
thorax -6.22837 -0.237824 2.27782
lowerneck -18.6527 -6.98933 -4.09721
upperneck 35.405 -9.54274 2.47237
head 16.0742 -4.01099 -0.00711773
rclavicle -9.81064e-014 4.96962e-016
rhumerus -36.161 14.7403 -90.239
rradius 44.7529
rwrist -14.3413
rhand -34.9497 1.27834
rfingers 7.12502
rthumb -8.09621 -28.5466
lclavicle -9.81064e-014 4.96962e-016
lhumerus -58.4833 -13.7587 91.7736
lradius 60.8683
lwrist 34.6591
lhand -27.3418 17.6101
lfingers 7.12502
lthumb -0.750178 47.5885
rfemur -17.5977 1.24101 17.5795
rtibia 37.086
rfoot -30.6189 1.16124
rtoes -11.1672
lfemur -11.8448 -0.332929 -17.8387
ltibia 52.9973
lfoot -38.243 9.80569
ltoes -1.4001
